<svg width="100" height="100" viewBox="0 0 100 100" fill="none" xmlns="http://www.w3.org/2000/svg">
<path d="M37.4999 8.33331C21.441 8.33331 8.33325 21.441 8.33325 37.5C8.33325 53.5589 21.441 66.6666 37.4999 66.6666C44.7832 66.6666 51.4375 63.9501 56.5592 59.5052L58.3333 61.2793V66.6666L81.608 89.9414C83.908 92.2414 87.6413 92.2414 89.9413 89.9414C92.2413 87.6414 92.2413 83.908 89.9413 81.608L66.6666 58.3333H61.2792L59.5051 56.5592C63.95 51.4375 66.6666 44.7833 66.6666 37.5C66.6666 21.441 53.5589 8.33331 37.4999 8.33331ZM37.4999 16.6666C49.0552 16.6666 58.3333 25.9447 58.3333 37.5C58.3333 49.0553 49.0552 58.3333 37.4999 58.3333C25.9446 58.3333 16.6666 49.0553 16.6666 37.5C16.6666 25.9447 25.9446 16.6666 37.4999 16.6666Z" fill="white"/>
</svg>
